<svg width="80" height="49" viewBox="0 0 80 49" fill="none" xmlns="http://www.w3.org/2000/svg">
<path fill-rule="evenodd" clip-rule="evenodd" d="M0 0C5.77806 0 11.5625 0 17.3406 0C20.0319 1.97078 22.7934 3.82813 25.6186 5.58623C25.389 6.21716 25.0638 6.79138 24.6301 7.30179C23.3929 6.23134 22.0153 5.72801 20.4911 5.7989C18.6671 7.01114 17.0918 8.51403 15.7653 10.3147C15.4719 10.258 15.2105 10.3288 14.9745 10.5273C12.1237 13.5615 9.36862 16.6453 6.70281 19.7716C4.45791 19.7574 2.22577 19.6156 0 19.3391C0 14.0365 0 8.74088 0 3.43822C1.57526 2.86401 1.57526 2.28979 0 1.71557C0 1.14135 0 0.57422 0 0Z" fill="#A68AFD"/>
<path fill-rule="evenodd" clip-rule="evenodd" d="M17.3406 0C38.2271 0 59.1135 0 80 0C80 8.45023 80 16.9075 80 25.3578C78.0549 24.9112 76.0842 24.6276 74.088 24.5C74.662 23.7415 74.5281 23.1672 73.6926 22.7773C70.3253 15.667 65.4656 10.0736 59.1135 6.01866C57.9337 6.37312 56.8814 6.94734 55.963 7.73423C54.847 7.98235 53.9286 8.55657 53.2015 9.45688C52.1811 9.72627 51.2628 10.2225 50.4464 10.9598C48.7883 12.5548 47.0791 14.0577 45.3189 15.4685C42.3406 14.0506 39.3176 12.6186 36.2564 11.1724C36.0204 11.2292 35.8865 11.3709 35.861 11.6049C33.7628 7.9469 31.2628 4.57957 28.3737 1.50289C28.0038 1.23351 27.6722 1.31149 27.3916 1.71557C26.926 3.01288 26.4669 4.30309 26.0077 5.58623C25.8801 5.58623 25.7462 5.58623 25.6186 5.58623C22.7934 3.82813 20.0319 1.97078 17.3406 0Z" fill="#A795FB"/>
<path fill-rule="evenodd" clip-rule="evenodd" d="M0 1.71558C1.57526 2.28979 1.57526 2.86401 0 3.43823C0 2.86401 0 2.28979 0 1.71558Z" fill="#CDBFF7"/>
<path fill-rule="evenodd" clip-rule="evenodd" d="M38.2271 17.6236C38.7501 19.481 39.2794 21.3383 39.8024 23.2098C39.458 23.1531 39.1965 23.2949 39.0179 23.6352C39.3687 24.7482 39.4963 25.8966 39.407 27.0734C36.1736 26.0171 32.8891 25.1523 29.56 24.5001C28.9988 23.8833 28.3419 23.458 27.5894 23.2098C25.0575 20.2608 21.907 18.9705 18.1315 19.3392C20.6187 14.6249 23.2463 10.0383 26.0077 5.58629C26.856 4.608 27.5128 3.45956 27.9784 2.14807C32.1685 6.71346 35.5868 11.8673 38.2271 17.6236Z" fill="#A58AFC"/>
<path fill-rule="evenodd" clip-rule="evenodd" d="M74.8788 5.58618C75.2742 5.58618 75.6632 5.58618 76.0586 5.58618C76.0586 6.1604 76.0586 6.73462 76.0586 7.30175C75.6632 7.30175 75.2742 7.30175 74.8788 7.30175C74.8788 6.73462 74.8788 6.1604 74.8788 5.58618Z" fill="#C9C4F6"/>
<path fill-rule="evenodd" clip-rule="evenodd" d="M27.1939 23.2098C27.1684 23.4437 27.0409 23.5855 26.7985 23.6351C20.4784 22.1535 14.171 20.8633 7.88269 19.7716C10.3636 16.4893 12.9911 13.3346 15.7653 10.3147C17.5829 8.88977 19.4197 7.45777 21.2819 6.01868C22.2832 6.54327 23.2079 7.18838 24.037 7.94692C22.4809 10.2721 20.9694 12.6328 19.509 15.0431C18.5587 16.8154 17.838 18.6798 17.3406 20.6293C21.046 19.6723 24.3304 20.5301 27.1939 23.2098Z" fill="#A388F9"/>
<path fill-rule="evenodd" clip-rule="evenodd" d="M73.6925 22.7774C73.278 23.536 72.6211 23.8195 71.7218 23.6352C63.1377 21.7282 54.732 19.1478 46.505 15.901C48.5139 13.4481 50.7461 11.3001 53.2014 9.45697C54.3175 9.20176 55.2359 8.63463 55.9629 7.73431C57.1491 7.73431 58.2014 7.30187 59.1134 6.44409C64.7958 11.0662 69.6555 16.5106 73.6925 22.7774Z" fill="#A695FA"/>
<path fill-rule="evenodd" clip-rule="evenodd" d="M35.861 11.6049C36.7794 13.597 37.6977 15.6032 38.6225 17.6236C38.4886 17.6236 38.361 17.6236 38.2271 17.6236C35.5868 11.8672 32.1684 6.71342 27.9784 2.14803C27.5128 3.45951 26.8559 4.60795 26.0077 5.58625C26.4669 4.30312 26.9261 3.0129 27.3916 1.71559C27.6722 1.31151 28.0039 1.23353 28.3738 1.50292C31.2628 4.57959 33.7628 7.94693 35.861 11.6049Z" fill="#463D6A"/>
<path fill-rule="evenodd" clip-rule="evenodd" d="M55.963 7.73425C55.236 8.63457 54.3176 9.2017 53.2015 9.45691C53.9286 8.55659 54.8469 7.98237 55.963 7.73425Z" fill="#302C49"/>
<path fill-rule="evenodd" clip-rule="evenodd" d="M73.6927 22.7774C69.6557 16.5106 64.796 11.0661 59.1136 6.44402C58.2017 7.30181 57.1494 7.73424 55.9631 7.73424C56.8815 6.94735 57.9338 6.37313 59.1136 6.01868C65.4657 10.0737 70.3254 15.667 73.6927 22.7774Z" fill="#453E68"/>
<path fill-rule="evenodd" clip-rule="evenodd" d="M25.6187 5.58618C25.7462 5.58618 25.8802 5.58618 26.0077 5.58618C23.2462 10.0381 20.6187 14.6248 18.1315 19.3391C21.907 18.9704 25.0575 20.2607 27.5894 23.2097C27.4554 23.2097 27.3215 23.2097 27.194 23.2097C24.3304 20.53 21.046 19.6723 17.3406 20.6293C17.8381 18.6798 18.5587 16.8153 19.509 15.0431C20.9695 12.6328 22.4809 10.2721 24.0371 7.94686C23.208 7.18832 22.2832 6.54321 21.282 6.01862C19.4197 7.45771 17.583 8.88971 15.7654 10.3146C17.0919 8.51399 18.6672 7.01109 20.4911 5.79885C22.0154 5.72796 23.3929 6.23129 24.6302 7.30175C25.0639 6.79133 25.3891 6.21711 25.6187 5.58618Z" fill="#403561"/>
<path fill-rule="evenodd" clip-rule="evenodd" d="M45.319 15.4685C43.4312 17.6732 41.8496 20.1119 40.5932 22.7774C39.7897 21.1611 39.1328 19.4455 38.6226 17.6236C37.6978 15.6032 36.7795 13.597 35.8611 11.6049C35.8866 11.371 36.0205 11.2292 36.2565 11.1725C39.3177 12.6187 42.3407 14.0507 45.319 15.4685Z" fill="#A388F8"/>
<path fill-rule="evenodd" clip-rule="evenodd" d="M61.875 13.7528C62.264 13.7528 62.6594 13.7528 63.0548 13.7528C63.0548 14.327 63.0548 14.9012 63.0548 15.4684C62.6594 15.4684 62.264 15.4684 61.875 15.4684C61.875 14.9012 61.875 14.327 61.875 13.7528Z" fill="#C9C4F6"/>
<path fill-rule="evenodd" clip-rule="evenodd" d="M46.5051 15.9009C54.7322 19.1477 63.1378 21.7281 71.722 23.6351C68.7245 24.2448 65.8355 25.2443 63.0549 26.648C62.3852 26.5771 61.7283 26.648 61.0842 26.8607C57.8763 28.5762 54.7258 30.3698 51.6263 32.2342C48.0931 30.3769 44.4197 28.9449 40.5931 27.9382C40.5931 26.648 40.5931 25.3578 40.5931 24.0675C40.5931 23.784 40.5931 23.4933 40.5931 23.2098C42.1238 20.3883 44.0944 17.9567 46.5051 15.9009Z" fill="#A68AFC"/>
<path fill-rule="evenodd" clip-rule="evenodd" d="M0 19.3391C2.22577 19.6156 4.45791 19.7574 6.70281 19.7715C5.625 21.1185 5.09566 22.6923 5.12117 24.5C6.58801 24.5283 8.03571 24.741 9.45791 25.1451C8.20791 26.5062 6.96429 27.8673 5.71429 29.2284C5.58673 29.8877 5.77806 30.4619 6.3074 30.944C5.86097 31.4261 5.59949 32.0003 5.51658 32.6667C4.34949 33.4677 3.62245 34.6091 3.34822 36.1049C3.25893 39.4155 3.06122 42.7119 2.76148 45.9871C1.17985 47.2348 1.3074 47.9508 3.15051 48.1351C5.10204 47.646 7.07271 47.3553 9.0625 47.2773C8.80102 47.8515 8.53954 48.4258 8.27806 49C5.51658 49 2.76148 49 0 49C0 39.1107 0 29.2284 0 19.3391Z" fill="#A694F9"/>
<path fill-rule="evenodd" clip-rule="evenodd" d="M29.949 19.7715C30.3444 19.7715 30.7398 19.7715 31.1352 19.7715C31.1033 21.5083 30.5803 21.7919 29.5599 20.6293C29.7002 20.3386 29.8342 20.048 29.949 19.7715Z" fill="#CFC2F6"/>
<path fill-rule="evenodd" clip-rule="evenodd" d="M53.2016 9.45691C50.7462 11.3001 48.5141 13.4481 46.5051 15.9009C44.0944 17.9568 42.1238 20.3883 40.5931 23.2098C40.5931 23.068 40.5931 22.9191 40.5931 22.7774C41.8495 20.1119 43.4311 17.6732 45.3189 15.4685C47.0791 14.0577 48.7883 12.5549 50.4465 10.9598C51.2628 10.2225 52.1811 9.7263 53.2016 9.45691Z" fill="#423865"/>
<path fill-rule="evenodd" clip-rule="evenodd" d="M18.1314 26.2156C17.6212 26.322 17.2258 26.1731 16.9452 25.7903C17.0983 24.5142 16.8368 23.3658 16.1608 22.352C16.4988 21.8842 16.8942 21.8133 17.3406 22.1323C18.023 23.38 18.2845 24.7411 18.1314 26.2156Z" fill="#D7CCFB"/>
<path fill-rule="evenodd" clip-rule="evenodd" d="M7.88267 19.7715C14.1709 20.8632 20.4783 22.1534 26.7985 23.6351C27.0408 23.5854 27.1684 23.4436 27.1939 23.2097C27.3214 23.2097 27.4554 23.2097 27.5893 23.2097C31.0396 27.3356 34.1327 31.7804 36.8495 36.5302C37.2322 37.076 37.3661 37.6502 37.2449 38.2528C31.6518 32.7304 25.2806 28.725 18.1314 26.2155C18.2845 24.741 18.023 23.3798 17.3406 22.1322C16.8942 21.8132 16.4987 21.884 16.1607 22.3519C16.8368 23.3657 17.0982 24.5141 16.9452 25.7901C13.0995 25.1805 9.29211 24.3936 5.5166 23.4224C6.06507 22.0046 6.85589 20.7852 7.88267 19.7715Z" fill="#A593F7"/>
<path fill-rule="evenodd" clip-rule="evenodd" d="M12.6084 21.4871C13.2015 21.4517 13.5969 21.7424 13.7946 22.352C13.2653 22.9191 12.7423 22.9191 12.2194 22.352C12.3597 22.0543 12.4936 21.7707 12.6084 21.4871Z" fill="#CAC6F6"/>
<path fill-rule="evenodd" clip-rule="evenodd" d="M74.0881 24.5C76.0843 24.6276 78.055 24.9112 80.0001 25.3578C80.0001 25.932 80.0001 26.5062 80.0001 27.0734C78.1825 28.2005 76.4797 29.4908 74.8789 30.944C74.5346 31.0007 74.2667 30.859 74.0881 30.5187C74.4134 30.1359 74.8088 29.9941 75.2744 30.0862C75.3318 29.6325 75.268 29.2001 75.0767 28.796C73.7884 27.3498 72.4108 26.0596 70.9376 24.9254C71.958 24.5071 73.0039 24.3653 74.0881 24.5Z" fill="#A388F8"/>
<path fill-rule="evenodd" clip-rule="evenodd" d="M39.8023 23.2097C39.7258 28.5194 39.8533 33.815 40.1977 39.1106C40.3508 42.3077 39.9553 42.4495 39.0178 39.543C36.352 34.1553 33.1951 29.1362 29.5599 24.4999C32.889 25.1521 36.1735 26.017 39.4069 27.0732C39.4962 25.8964 39.3686 24.748 39.0178 23.635C39.1964 23.2947 39.4579 23.1529 39.8023 23.2097Z" fill="#A492F6"/>
<path fill-rule="evenodd" clip-rule="evenodd" d="M59.1134 24.5001C59.8404 24.3796 60.3698 24.6631 60.6887 25.3579C60.3698 26.0526 59.8404 26.3362 59.1134 26.2156C59.1134 25.6414 59.1134 25.0743 59.1134 24.5001Z" fill="#CEC0F7"/>
<path fill-rule="evenodd" clip-rule="evenodd" d="M54.7768 33.5244C54.0306 33.3968 53.3738 33.1132 52.8062 32.6666C56.1097 30.4335 59.5281 28.4273 63.0549 26.6479C65.2424 26.1801 67.4044 25.6058 69.56 24.9253C71.3776 26.1234 73.0166 27.5554 74.4834 29.2284C67.7041 29.5828 61.1416 31.0148 54.7768 33.5244Z" fill="#A388F8"/>
<path fill-rule="evenodd" clip-rule="evenodd" d="M17.7359 27.0734C21.8685 28.321 25.8099 30.1075 29.5599 32.4469C32.755 34.8643 35.778 37.5156 38.6224 40.4009C38.8647 41.1453 39.2601 41.7904 39.8022 42.3362C39.1007 42.3859 38.4438 42.1732 37.8316 41.6911C35.1402 39.7912 32.2448 38.3592 29.1645 37.3951C25.2359 35.3464 21.167 33.6237 16.9451 32.2342C17.4553 30.5683 17.7168 28.8456 17.7359 27.0734Z" fill="#A391F4"/>
<path fill-rule="evenodd" clip-rule="evenodd" d="M80 27.0734C80 27.6476 80 28.2218 80 28.796C78.565 29.7885 77.2512 30.9369 76.0586 32.2342C75.5357 31.9507 75.1403 31.5182 74.8788 30.944C76.4795 29.4908 78.1824 28.2005 80 27.0734Z" fill="#DCD0FD"/>
<path fill-rule="evenodd" clip-rule="evenodd" d="M40.5931 24.0676C40.5931 25.3578 40.5931 26.6481 40.5931 27.9383C44.4196 28.9449 48.0931 30.3769 51.6263 32.2343C50.8929 32.851 50.236 33.567 49.6556 34.3823C46.5242 36.9344 43.5077 39.6566 40.5931 42.549C40.287 36.3176 40.287 30.1572 40.5931 24.0676Z" fill="#A492F6"/>
<path fill-rule="evenodd" clip-rule="evenodd" d="M63.0549 26.6479C59.5281 28.4273 56.1097 30.4335 52.8061 32.6666C51.7602 33.2408 50.7079 33.8079 49.6556 34.3822C50.236 33.5669 50.8929 32.8509 51.6263 32.2341C54.7258 30.3697 57.8763 28.5762 61.0842 26.8606C61.7283 26.6479 62.3852 26.577 63.0549 26.6479Z" fill="#4C3F74"/>
<path fill-rule="evenodd" clip-rule="evenodd" d="M80.0001 28.796C80.0001 35.5307 80.0001 42.2653 80.0001 49C77.768 49 75.5358 49 73.3037 49C72.5129 47.9934 71.7221 46.9938 70.9376 45.9871C73.1698 46.1644 75.4019 46.3061 77.6341 46.4196C77.6022 45.2002 77.3407 44.0589 76.8496 42.9813C76.8496 40.9751 76.8496 38.9689 76.8496 36.9627C76.7795 35.6512 76.6519 34.5028 76.4542 33.5245C76.4287 33.0495 76.3011 32.6171 76.0588 32.2342C77.2514 30.9369 78.5652 29.7885 80.0001 28.796Z" fill="#A489FA"/>
<path fill-rule="evenodd" clip-rule="evenodd" d="M73.6926 22.7772C74.528 23.1671 74.662 23.7413 74.088 24.4999C73.0038 24.3652 71.9579 24.507 70.9375 24.9252C72.4107 26.0595 73.7882 27.3497 75.0765 28.7959C75.2678 29.2 75.3316 29.6324 75.2742 30.0861C74.8086 29.9939 74.4132 30.1357 74.088 30.5185C74.2665 30.8588 74.5344 31.0006 74.8788 30.9439C75.1403 31.5181 75.5357 31.9505 76.0586 32.2341C76.301 32.6169 76.4285 33.0494 76.454 33.5243C76.3201 33.5243 76.1926 33.5243 76.0586 33.5243C75.6313 32.624 74.9745 32.0569 74.088 31.8017C73.5459 30.7454 72.6913 30.32 71.5306 30.5185C66.1288 30.6461 60.9438 31.7946 55.963 33.9568C55.3252 34.1836 54.6683 34.3254 53.9923 34.3821C54.2538 34.0985 54.5153 33.8079 54.7767 33.5243C61.1415 31.0148 67.704 29.5828 74.4834 29.2283C73.0165 27.5553 71.3775 26.1233 69.5599 24.9252C67.4043 25.6058 65.2423 26.18 63.0548 26.6479C65.8354 25.2442 68.7245 24.2447 71.7219 23.635C72.6211 23.8193 73.278 23.5358 73.6926 22.7772Z" fill="#4C4074"/>
<path fill-rule="evenodd" clip-rule="evenodd" d="M38.227 17.6235C38.3609 17.6235 38.4885 17.6235 38.6224 17.6235C39.1326 19.4454 39.7895 21.161 40.5931 22.7773C40.5931 22.9191 40.5931 23.068 40.5931 23.2098C40.5931 23.4933 40.5931 23.784 40.5931 24.0675C40.2869 30.1571 40.2869 36.3175 40.5931 42.5489C40.8545 42.8395 41.116 43.1231 41.3775 43.4067C41.2181 43.676 40.9502 43.8178 40.5931 43.8391C39.6683 43.3429 38.75 42.9104 37.8316 42.5489C37.4362 42.1661 37.4362 41.8754 37.8316 41.6911C38.4438 42.1732 39.1007 42.3858 39.8023 42.3362C39.2602 41.7903 38.8648 41.1452 38.6224 40.4009C38.5523 39.9755 38.6862 39.692 39.0178 39.5431C39.9553 42.4496 40.3507 42.3078 40.1977 39.1107C39.8533 33.8151 39.7257 28.5195 39.8023 23.2098C39.2793 21.3382 38.75 19.4809 38.227 17.6235Z" fill="#2C2742"/>
<path fill-rule="evenodd" clip-rule="evenodd" d="M15.7652 32.6667C15.5037 33.3827 15.2359 34.0987 14.9744 34.8147C12.4489 35.4881 9.10068 35.9206 4.92977 36.1049C4.2091 35.8851 4.13895 35.5236 4.73206 35.0274C13.1377 34.7438 13.1377 34.4531 4.73206 34.1696C5.24864 33.8151 5.5165 33.3189 5.5165 32.6667C6.30732 31.9436 7.09813 31.2276 7.88257 30.5187C10.542 31.1425 13.1696 31.8585 15.7652 32.6667Z" fill="#9C8BEA"/>
<path fill-rule="evenodd" clip-rule="evenodd" d="M74.0881 31.8018C73.4312 32.2342 72.9083 32.8084 72.5129 33.5244C68.0869 33.8293 63.7501 34.6941 59.5091 36.1049C59.2476 36.1049 58.9797 36.1049 58.7182 36.1049C57.6787 35.5377 56.7603 34.8217 55.9631 33.9569C60.944 31.7947 66.129 30.6463 71.5307 30.5187C72.6915 30.3202 73.546 30.7455 74.0881 31.8018Z" fill="#A388F8"/>
<path fill-rule="evenodd" clip-rule="evenodd" d="M74.088 31.8019C74.9744 32.0571 75.6313 32.6242 76.0586 33.5245C74.8788 33.5245 73.6925 33.5245 72.5127 33.5245C72.9081 32.8085 73.4311 32.2343 74.088 31.8019Z" fill="#C9BBF2"/>
<path fill-rule="evenodd" clip-rule="evenodd" d="M15.7653 32.6667C16.1543 32.5888 16.4158 32.7306 16.5497 33.0921C16.3393 33.7868 16.2117 34.5028 16.1607 35.2401C15.6505 35.3464 15.2551 35.2047 14.9745 34.8148C15.236 34.0988 15.5038 33.3828 15.7653 32.6667Z" fill="#CFC5EF"/>
<path fill-rule="evenodd" clip-rule="evenodd" d="M15.7653 10.3146C12.991 13.3345 10.3635 16.4892 7.8826 19.7714C6.85581 20.7852 6.065 22.0045 5.51653 23.4223C9.29204 24.3935 13.0994 25.1804 16.9451 25.7901C17.2257 26.1729 17.6211 26.3218 18.1313 26.2155C25.2806 28.725 31.6517 32.7303 37.2448 38.2528C37.366 37.6502 37.2321 37.076 36.8494 36.5301C34.1326 31.7804 31.0395 27.3355 27.5892 23.2097C28.3418 23.4578 28.9987 23.8831 29.5599 24.4999C33.1951 29.1362 36.352 34.1553 39.0178 39.543C38.6862 39.6919 38.5522 39.9754 38.6224 40.4008C35.778 37.5155 32.7551 34.8642 29.5599 32.4468C25.8099 30.1074 21.8686 28.3209 17.7359 27.0732C17.4744 27.0732 17.2066 27.0732 16.9451 27.0732C14.7066 26.0382 12.3405 25.5349 9.85326 25.5703C8.73081 26.7259 7.67852 27.9452 6.70275 29.2283C9.78311 30.3555 12.9336 31.2133 16.1607 31.8017C16.2946 32.1632 16.5561 32.305 16.9451 32.2341C21.167 33.6236 25.2359 35.3462 29.1645 37.395C25.0382 35.7007 20.8354 34.2687 16.5497 33.0919C16.4158 32.7303 16.1543 32.5886 15.7653 32.6665C13.1696 31.8584 10.542 31.1424 7.8826 30.5185C7.09816 31.2275 6.30734 31.9435 5.51653 32.6665C5.59944 32.0002 5.86091 31.426 6.30734 30.9439C5.77801 30.4618 5.58668 29.8876 5.71423 29.2283C6.96423 27.8672 8.20785 26.5061 9.45785 25.145C8.03566 24.7409 6.58796 24.5282 5.12112 24.4999C5.09561 22.6922 5.62495 21.1184 6.70275 19.7714C9.36857 16.6451 12.1237 13.5614 14.9744 10.5272C15.2104 10.3287 15.4719 10.2578 15.7653 10.3146Z" fill="#453D67"/>
<path fill-rule="evenodd" clip-rule="evenodd" d="M16.9451 27.0734C17.2066 27.0734 17.4744 27.0734 17.7359 27.0734C17.7168 28.8456 17.4553 30.5683 16.9451 32.2342C16.556 32.3051 16.2946 32.1634 16.1606 31.8018C16.0586 30.1217 16.3201 28.5479 16.9451 27.0734Z" fill="#DBD1FC"/>
<path fill-rule="evenodd" clip-rule="evenodd" d="M16.9451 27.0732C16.3201 28.5478 16.0586 30.1216 16.1607 31.8017C12.9336 31.2133 9.78312 30.3555 6.70276 29.2283C7.67852 27.9452 8.73082 26.7259 9.85327 25.5704C12.3405 25.5349 14.7066 26.0382 16.9451 27.0732Z" fill="#A593F7"/>
<path fill-rule="evenodd" clip-rule="evenodd" d="M16.5498 33.092C20.8355 34.2688 25.0383 35.7008 29.1646 37.3951C29.3304 37.7 29.5919 37.9197 29.949 38.0402C28.1952 38.0261 26.4924 37.6645 24.8279 36.9627C21.9516 36.3318 19.0562 35.7646 16.1608 35.24C16.2118 34.5028 16.3393 33.7868 16.5498 33.092Z" fill="#9C8CEB"/>
<path fill-rule="evenodd" clip-rule="evenodd" d="M55.9629 33.9569C56.7601 34.8218 57.6785 35.5378 58.718 36.1049C54.7448 37.6503 50.6695 38.8697 46.505 39.7558C47.3979 39.0611 48.1823 38.2742 48.8647 37.3951C50.644 36.4948 52.3468 35.4952 53.9923 34.3823C54.6683 34.3255 55.3252 34.1838 55.9629 33.9569Z" fill="#A08EF0"/>
<path fill-rule="evenodd" clip-rule="evenodd" d="M53.9923 34.3822C52.3469 35.4952 50.6441 36.4948 48.8647 37.3951C50.2742 35.8355 51.9834 34.8359 53.9923 34.3822Z" fill="#2E2945"/>
<path fill-rule="evenodd" clip-rule="evenodd" d="M5.51658 32.6667C5.51658 33.3189 5.24872 33.8152 4.73214 34.1696C13.1378 34.4532 13.1378 34.7439 4.73214 35.0274C4.13903 35.5237 4.20918 35.8852 4.92984 36.105C9.10076 35.9207 12.449 35.4882 14.9745 34.8148C15.2551 35.2047 15.6505 35.3464 16.1607 35.2401C19.0561 35.7647 21.9515 36.3318 24.8278 36.9628C24.4069 37.3668 23.8839 37.5086 23.2525 37.3952C16.7092 35.9065 10.1403 35.7647 3.54591 36.9628C3.72449 39.8268 3.85841 42.6908 3.94132 45.5619C4.59821 45.5619 5.2551 45.5619 5.91199 45.5619C6.17346 45.5619 6.30739 45.7036 6.30739 45.9872C4.95535 46.4905 3.77551 46.4905 2.76147 45.9872C3.06122 42.712 3.25892 39.4156 3.34821 36.105C3.62244 34.6092 4.34949 33.4678 5.51658 32.6667Z" fill="#272339"/>
<path fill-rule="evenodd" clip-rule="evenodd" d="M72.5127 33.5244C73.6926 33.5244 74.8788 33.5244 76.0587 33.5244C76.1926 33.5244 76.3201 33.5244 76.4541 33.5244C76.6518 34.5027 76.7793 35.6512 76.8495 36.9626C76.588 36.5302 76.3201 36.1049 76.0587 35.6724C74.8788 35.6724 73.6926 35.6724 72.5127 35.6724C71.9515 35.2612 71.2946 35.1195 70.5421 35.24C67.0982 35.4456 63.6798 35.878 60.2933 36.5302C59.9043 36.6082 59.6428 36.4664 59.5089 36.1049C63.75 34.6941 68.0867 33.8292 72.5127 33.5244Z" fill="#28223B"/>
<path fill-rule="evenodd" clip-rule="evenodd" d="M70.542 35.2401C71.2946 35.1195 71.9515 35.2613 72.5127 35.6725C72.1173 35.8143 71.8558 36.1049 71.7219 36.5303C71.065 36.5303 70.4081 36.5303 69.7512 36.5303C70.0191 36.1049 70.2806 35.6725 70.542 35.2401Z" fill="#D4C9F5"/>
<path fill-rule="evenodd" clip-rule="evenodd" d="M73.6926 33.9568C74.7003 33.8008 75.4847 34.1624 76.0587 35.0273C75.1339 35.169 74.2156 35.0982 73.3036 34.8146C73.4311 34.5239 73.5651 34.2404 73.6926 33.9568Z" fill="#987FE8"/>
<path fill-rule="evenodd" clip-rule="evenodd" d="M71.7218 33.9569C72.3787 33.9569 73.0356 33.9569 73.6925 33.9569C73.5649 34.2405 73.431 34.524 73.3034 34.8147C72.6465 34.8147 71.9897 34.8147 71.3328 34.8147C71.4603 34.524 71.5942 34.2405 71.7218 33.9569Z" fill="#D0C5EE"/>
<path fill-rule="evenodd" clip-rule="evenodd" d="M71.7219 33.9569C71.5944 34.2405 71.4605 34.524 71.3329 34.8147C70.2742 34.8856 69.2219 34.8147 68.176 34.602C69.3622 34.3823 70.5485 34.1696 71.7219 33.9569Z" fill="#836FC4"/>
<path fill-rule="evenodd" clip-rule="evenodd" d="M72.5128 35.6725C73.6926 35.6725 74.8788 35.6725 76.0587 35.6725C76.0587 36.3885 76.0587 37.1045 76.0587 37.8205C76.0587 40.1174 76.0587 42.4071 76.0587 44.6969C73.9477 44.7111 71.8431 44.5693 69.7513 44.2716C68.176 44.2716 66.6008 44.2716 65.0255 44.2716C65.1594 43.8391 65.4209 43.5556 65.8163 43.4067C68.4566 43.5485 71.0778 43.4067 73.6926 42.9814C71.3457 42.5489 68.9796 42.4071 66.6008 42.5489C67.7615 40.2166 69.4643 38.5648 71.7219 37.6078C71.3648 37.4873 71.1033 37.2746 70.9375 36.9627C71.7347 37.0336 72.5255 36.9627 73.3036 36.75C72.7934 36.5374 72.264 36.4665 71.7219 36.5303C71.8559 36.1049 72.1173 35.8143 72.5128 35.6725Z" fill="#9E84EF"/>
<path fill-rule="evenodd" clip-rule="evenodd" d="M69.7513 36.5302C70.4082 36.5302 71.0651 36.5302 71.7219 36.5302C72.264 36.4664 72.7934 36.5373 73.3036 36.75C72.5255 36.9627 71.7347 37.0336 70.9375 36.9627C70.2806 36.9627 69.6237 36.9627 68.9668 36.9627C66.7028 37.0903 64.4707 37.3029 62.264 37.6078C64.6875 36.7075 67.1811 36.3459 69.7513 36.5302Z" fill="#5A4C84"/>
<path fill-rule="evenodd" clip-rule="evenodd" d="M52.8061 32.6667C53.3737 33.1134 54.0306 33.3969 54.7767 33.5245C54.5153 33.8081 54.2538 34.0987 53.9923 34.3823C51.9834 34.836 50.2742 35.8356 48.8647 37.3952C46.8494 38.4231 45.0063 39.7842 43.3482 41.4785C43.0867 41.7621 42.8252 41.7621 42.5637 41.4785C45.0063 39.1675 47.366 36.8068 49.6556 34.3823C50.7079 33.8081 51.7601 33.241 52.8061 32.6667Z" fill="#9585E0"/>
<path fill-rule="evenodd" clip-rule="evenodd" d="M23.2527 37.3951C26.1672 37.9693 29.0562 38.8271 31.9197 39.9684C31.7603 40.2378 31.4925 40.3796 31.1353 40.4008C27.9019 39.3871 24.6174 39.0256 21.282 39.3233C22.0728 39.4722 22.8572 39.614 23.6481 39.7557C20.6315 39.7274 17.6085 39.6565 14.5792 39.5431C14.5792 39.2524 14.5792 38.9688 14.5792 38.6853C11.6646 38.1181 11.2692 38.1181 13.3993 38.6853C13.3993 38.8271 13.3993 38.9688 13.3993 39.1106C11.0205 38.9688 8.65444 39.1106 6.3075 39.5431C8.52689 39.9684 10.759 40.1102 13.0039 39.9684C12.7424 40.5426 12.481 41.1168 12.2195 41.6911C10.2361 41.8754 8.26541 42.1589 6.3075 42.5488C7.99117 42.9742 9.70036 43.1231 11.4287 42.9813C11.3011 43.5555 11.1672 44.1297 11.0333 44.6968C9.24117 44.7536 7.53199 45.0371 5.91209 45.5617C5.2552 45.5617 4.59832 45.5617 3.94143 45.5617C3.85852 42.6906 3.72459 39.8266 3.54602 36.9626C10.1404 35.7646 16.7093 35.9063 23.2527 37.3951Z" fill="#9C8BEA"/>
<path fill-rule="evenodd" clip-rule="evenodd" d="M14.5792 38.6854C14.1901 38.6854 13.7947 38.6854 13.3993 38.6854C11.2692 38.1182 11.6646 38.1182 14.5792 38.6854Z" fill="#5D538A"/>
<path fill-rule="evenodd" clip-rule="evenodd" d="M68.9669 36.9626C69.6238 36.9626 70.2807 36.9626 70.9376 36.9626C71.1034 37.2746 71.3649 37.4872 71.722 37.6078C69.4643 38.5648 67.7615 40.2166 66.6008 42.5489C66.2054 42.6907 65.9439 42.9813 65.8164 43.4067C65.421 43.5555 65.1595 43.8391 65.0256 44.2715C64.5026 44.2715 63.9733 44.2715 63.4503 44.2715C63.9541 43.1444 64.611 42.1448 65.421 41.2587C65.7526 41.1169 65.8802 40.8262 65.8164 40.4009C66.6008 39.8267 67.2577 39.1106 67.7871 38.2529C68.31 37.9622 68.7054 37.5369 68.9669 36.9626Z" fill="#B5ACD2"/>
<path fill-rule="evenodd" clip-rule="evenodd" d="M24.8278 36.9626C26.4924 37.6645 28.1952 38.026 29.949 38.0402C29.5918 37.9197 29.3304 37.6999 29.1646 37.3951C32.2449 38.3592 35.1403 39.7912 37.8316 41.6911C37.4362 41.8754 37.4362 42.1661 37.8316 42.5489C37.0472 42.2653 36.2564 41.9747 35.4656 41.6911C34.3623 41.0176 33.176 40.4434 31.9197 39.9684C29.0561 38.8271 26.1671 37.9693 23.2526 37.3951C23.8839 37.5085 24.4069 37.3667 24.8278 36.9626Z" fill="#463F6A"/>
<path fill-rule="evenodd" clip-rule="evenodd" d="M13.3992 39.1107C13.4694 39.536 13.3354 39.8267 13.0038 39.9685C10.7589 40.1102 8.52676 39.9685 6.30737 39.5431C8.65431 39.1107 11.0204 38.9689 13.3992 39.1107Z" fill="#796CB5"/>
<path fill-rule="evenodd" clip-rule="evenodd" d="M76.0587 35.6725C76.3202 36.1049 76.5881 36.5303 76.8495 36.9627C76.8495 38.9689 76.8495 40.9751 76.8495 42.9814C76.5881 41.2587 76.3202 39.5431 76.0587 37.8205C76.0587 37.1045 76.0587 36.3885 76.0587 35.6725Z" fill="#68569E"/>
<path fill-rule="evenodd" clip-rule="evenodd" d="M49.6556 34.3822C47.3661 36.8067 45.0064 39.1674 42.5638 41.4784C42.8253 41.762 43.0868 41.762 43.3482 41.4784C45.0064 39.7841 46.8495 38.423 48.8648 37.3951C48.1824 38.2741 47.398 39.061 46.5051 39.7558C50.6697 38.8696 54.7449 37.6503 58.7181 36.1049C58.9796 36.1049 59.2475 36.1049 59.509 36.1049C59.6429 36.4664 59.9044 36.6082 60.2934 36.5302C53.8138 38.2174 47.5128 40.5143 41.3776 43.4066C41.1161 43.1231 40.8546 42.8395 40.5931 42.5489C43.5077 39.6565 46.5243 36.9343 49.6556 34.3822Z" fill="#443C66"/>
<path fill-rule="evenodd" clip-rule="evenodd" d="M67.7869 38.2528C67.2576 39.1106 66.6007 39.8266 65.8162 40.4008C63.4438 40.5568 61.0777 40.6348 58.718 40.6135C60.9438 40.1385 63.1759 39.7132 65.4208 39.3233C64.2346 39.1815 63.0548 39.0397 61.8749 38.8979C63.8264 38.508 65.7971 38.2883 67.7869 38.2528Z" fill="#9D87EC"/>
<path fill-rule="evenodd" clip-rule="evenodd" d="M31.9195 39.9685C33.1759 40.4434 34.3621 41.0176 35.4655 41.6911C35.4208 42.159 35.1593 42.4426 34.681 42.5489C27.9081 41.0885 21.0777 40.2237 14.1899 39.9685C14.1899 39.6849 14.3175 39.5431 14.579 39.5431C17.6083 39.6565 20.6313 39.7274 23.6479 39.7558C22.857 39.614 22.0726 39.4722 21.2818 39.3233C24.6172 39.0256 27.9017 39.3871 31.1351 40.4009C31.4922 40.3796 31.7601 40.2378 31.9195 39.9685Z" fill="#776AB3"/>
<path fill-rule="evenodd" clip-rule="evenodd" d="M67.787 38.2529C65.7972 38.2884 63.8265 38.5081 61.875 38.898C63.0548 39.0398 64.2347 39.1816 65.4209 39.3234C63.176 39.7133 60.9439 40.1386 58.7181 40.6136C61.0778 40.6349 63.4439 40.5569 65.8163 40.4009C65.8801 40.8263 65.7525 41.1169 65.4209 41.2587C61.0523 41.4076 56.7156 41.9109 52.4171 42.7687C53.3354 42.9105 54.2538 43.0523 55.1722 43.194C53.9413 43.8675 52.6275 44.0164 51.2309 43.6265C51.7092 43.187 51.5752 42.9743 50.8354 42.9814C49.713 43.2366 48.5969 43.5272 47.4872 43.8392C46.7411 43.4705 46.8048 43.187 47.6849 42.9814C49.8916 42.3434 52.1237 41.84 54.3877 41.4785C55.2997 40.8901 55.2997 40.5285 54.3877 40.4009C50.102 41.4997 45.8992 42.712 41.7729 44.0518C50.0829 39.8763 58.7564 37.941 67.787 38.2529Z" fill="#786AB4"/>
<path fill-rule="evenodd" clip-rule="evenodd" d="M13.3993 38.6853C13.7947 38.6853 14.1901 38.6853 14.5791 38.6853C14.5791 38.9689 14.5791 39.2524 14.5791 39.5431C14.3176 39.5431 14.1901 39.6849 14.1901 39.9684C13.9222 40.5427 13.6608 41.1169 13.3993 41.6911C13.2653 41.9747 13.1378 42.2653 13.0039 42.5489C12.7424 43.1231 12.4809 43.6973 12.2194 44.2715C11.9388 44.6614 11.5434 44.8032 11.0332 44.6969C11.1671 44.1297 11.3011 43.5555 11.4286 42.9813C11.7858 42.641 12.0472 42.2086 12.2194 41.6911C12.4809 41.1169 12.7424 40.5427 13.0039 39.9684C13.3355 39.8267 13.4694 39.536 13.3993 39.1106C13.3993 38.9689 13.3993 38.8271 13.3993 38.6853Z" fill="#B8AFD6"/>
<path fill-rule="evenodd" clip-rule="evenodd" d="M13.3993 41.6911C21.1098 41.3012 28.7309 41.9392 36.2565 43.6264C28.5332 42.8112 20.7845 42.4496 13.0039 42.5489C13.1378 42.2653 13.2654 41.9747 13.3993 41.6911Z" fill="#786BB4"/>
<path fill-rule="evenodd" clip-rule="evenodd" d="M12.2194 41.691C12.0472 42.2085 11.7857 42.641 11.4285 42.9813C9.70023 43.123 7.99105 42.9742 6.30737 42.5488C8.26528 42.1589 10.2359 41.8754 12.2194 41.691Z" fill="#7A6DB8"/>
<path fill-rule="evenodd" clip-rule="evenodd" d="M70.5421 35.24C70.2806 35.6724 70.0191 36.1049 69.7512 36.5302C67.1811 36.3459 64.6875 36.7074 62.264 37.6078C64.4706 37.3029 66.7028 37.0902 68.9668 36.9626C68.7053 37.5369 68.3099 37.9622 67.787 38.2529C58.7563 37.9409 50.0829 39.8763 41.7729 44.0518C45.8992 42.7119 50.102 41.4997 54.3877 40.4009C55.2997 40.5285 55.2997 40.89 54.3877 41.4784C52.1237 41.84 49.8916 42.3433 47.6849 42.9813C46.8048 43.1869 46.741 43.4705 47.4872 43.8391C48.5969 43.5272 49.713 43.2365 50.8354 42.9813C51.5752 42.9742 51.7092 43.1869 51.2308 43.6264C52.6275 44.0163 53.9413 43.8674 55.1722 43.194C54.2538 43.0522 53.3354 42.9104 52.4171 42.7686C56.7155 41.9108 61.0523 41.4075 65.4209 41.2587C64.6109 42.1448 63.9541 43.1444 63.4502 44.2715C57.9209 44.1581 52.4043 44.3708 46.8941 44.9166C44.9107 45.2356 43.074 45.9516 41.3775 47.0646C40.4719 47.2773 39.5472 47.3482 38.6224 47.2773C36.9961 46.0438 35.1594 45.3987 33.1058 45.342C26.1671 44.4558 19.2028 44.1014 12.2194 44.2715C12.4808 43.6973 12.7423 43.1231 13.0038 42.5489C20.7844 42.4496 28.5331 42.8112 36.2563 43.6264C28.7308 41.9392 21.1097 41.3012 13.3992 41.6911C13.6607 41.1169 13.9222 40.5427 14.19 39.9684C21.0778 40.2236 27.9081 41.0885 34.6811 42.5489C35.1594 42.4425 35.4209 42.159 35.4655 41.6911C36.2564 41.9747 37.0472 42.2653 37.8316 42.5489C38.75 42.9104 39.6683 43.3429 40.5931 43.8391C40.9502 43.8178 41.2181 43.676 41.3775 43.4067C47.5127 40.5143 53.8137 38.2174 60.2933 36.5302C63.6798 35.878 67.0982 35.4456 70.5421 35.24Z" fill="#A08EF0"/>
<path fill-rule="evenodd" clip-rule="evenodd" d="M66.6008 42.5489C68.9797 42.4071 71.3457 42.5489 73.6927 42.9813C71.0779 43.4067 68.4567 43.5485 65.8164 43.4067C65.944 42.9813 66.2054 42.6907 66.6008 42.5489Z" fill="#7B67BB"/>
<path fill-rule="evenodd" clip-rule="evenodd" d="M76.0586 37.8204C76.3201 39.5431 76.588 41.2587 76.8494 42.9813C77.3405 44.0589 77.602 45.2002 77.6339 46.4195C75.4017 46.3061 73.1696 46.1643 70.9374 45.9871C70.6568 45.5972 70.2614 45.4554 69.7512 45.5618C69.7512 45.1293 69.7512 44.6969 69.7512 44.2715C71.8431 44.5693 73.9476 44.7111 76.0586 44.6969C76.0586 42.4071 76.0586 40.1173 76.0586 37.8204Z" fill="#3C315B"/>
<path fill-rule="evenodd" clip-rule="evenodd" d="M62.6594 45.1294C62.028 46.3629 61.5051 47.6531 61.0842 49.0001C43.8775 49.0001 26.6645 49.0001 9.45789 49.0001C9.89156 48.5251 10.153 47.9509 10.2487 47.2774C18.3354 46.0439 26.4796 45.6894 34.6811 46.2069C36.0395 46.5898 37.3533 47.0931 38.6224 47.7098C40.7653 48.0005 42.7359 47.4972 44.5344 46.2069C50.5612 45.6256 56.6071 45.2641 62.6594 45.1294Z" fill="#A493F7"/>
<path fill-rule="evenodd" clip-rule="evenodd" d="M62.6595 45.1294C63.1888 45.1294 63.7118 45.1294 64.2347 45.1294C63.6097 46.3558 63.0868 47.646 62.6595 49.0001C62.1365 49.0001 61.6072 49.0001 61.0842 49.0001C61.5051 47.6531 62.0281 46.3629 62.6595 45.1294Z" fill="#D7CDF8"/>
<path fill-rule="evenodd" clip-rule="evenodd" d="M64.2347 45.1293C66.0969 45.0655 67.9337 45.2073 69.7513 45.5618C70.2615 45.4554 70.6569 45.5972 70.9375 45.9871C71.7219 46.9938 72.5127 47.9933 73.3036 49C69.7513 49 66.2053 49 62.6594 49C63.0867 47.646 63.6097 46.3557 64.2347 45.1293Z" fill="#A492F6"/>
<path fill-rule="evenodd" clip-rule="evenodd" d="M2.76147 45.9872C3.77551 46.4905 4.95535 46.4905 6.30739 45.9872C11.1352 45.1648 15.9949 44.9522 20.8865 45.3421C14.8278 45.8525 8.78826 46.4976 2.76147 47.2774C2.76147 46.852 2.76147 46.4196 2.76147 45.9872Z" fill="#9787DE"/>
<path fill-rule="evenodd" clip-rule="evenodd" d="M12.2193 44.2716C19.2027 44.1014 26.167 44.4559 33.1058 45.342C35.1593 45.3987 36.9961 46.0439 38.6223 47.2774C38.6223 47.4191 38.6223 47.568 38.6223 47.7098C37.3532 47.093 36.0394 46.5897 34.681 46.2069C26.4795 45.6894 18.3354 46.0439 10.2486 47.2774C9.85321 47.2774 9.4578 47.2774 9.0624 47.2774C7.0726 47.3553 5.10194 47.646 3.15041 48.1351C1.3073 47.9508 1.17974 47.2348 2.76138 45.9871C2.76138 46.4196 2.76138 46.852 2.76138 47.2774C8.78816 46.4976 14.8277 45.8525 20.8864 45.342C15.9948 44.9521 11.1351 45.1648 6.3073 45.9871C6.3073 45.7036 6.17337 45.5618 5.91189 45.5618C7.53178 45.0372 9.24097 44.7536 11.0331 44.6969C11.5433 44.8033 11.9387 44.6615 12.2193 44.2716Z" fill="#463E67"/>
<path fill-rule="evenodd" clip-rule="evenodd" d="M63.4504 44.2716C63.9733 44.2716 64.5027 44.2716 65.0256 44.2716C66.6009 44.2716 68.1761 44.2716 69.7514 44.2716C69.7514 44.697 69.7514 45.1294 69.7514 45.5618C67.9338 45.2074 66.097 45.0656 64.2348 45.1294C63.7118 45.1294 63.1889 45.1294 62.6595 45.1294C56.6073 45.2641 50.5613 45.6256 44.5345 46.2069C42.7361 47.4972 40.7654 48.0005 38.6226 47.7098C38.6226 47.5681 38.6226 47.4192 38.6226 47.2774C39.5473 47.3483 40.472 47.2774 41.3777 47.0647C43.0741 45.9517 44.9108 45.2357 46.8942 44.9167C52.4044 44.3709 57.921 44.1582 63.4504 44.2716Z" fill="#2E2A43"/>
<path fill-rule="evenodd" clip-rule="evenodd" d="M78.4248 45.9871C79.7513 46.2919 79.8789 46.8661 78.8202 47.7097C77.972 47.3056 77.8445 46.7314 78.4248 45.9871Z" fill="#D0C4F6"/>
<path fill-rule="evenodd" clip-rule="evenodd" d="M9.06251 47.2772C9.45792 47.2772 9.85333 47.2772 10.2487 47.2772C10.1531 47.9507 9.8916 48.5249 9.45792 48.9999C9.06251 48.9999 8.67348 48.9999 8.27808 48.9999C8.53956 48.4257 8.80103 47.8514 9.06251 47.2772Z" fill="#D9CFFC"/>
</svg>
